<?xml version="1.0" standalone="no"?>
<!DOCTYPE svg PUBLIC "-//W3C//DTD SVG 20010904//EN"
 "http://www.w3.org/TR/2001/REC-SVG-20010904/DTD/svg10.dtd">
<svg version="1.0" xmlns="http://www.w3.org/2000/svg"
 width="512.000000pt" height="512.000000pt" viewBox="0 0 512.000000 512.000000"
 preserveAspectRatio="xMidYMid meet">
<metadata>
Created by potrace 1.11, written by Peter Selinger 2001-2013
</metadata>
<g transform="translate(0.000000,512.000000) scale(0.100000,-0.100000)"
fill="#000000" stroke="none">
<path d="M733 5105 c-213 -39 -412 -156 -543 -320 -73 -92 -143 -233 -170
-339 -20 -78 -20 -115 -20 -1886 0 -1771 0 -1808 20 -1886 27 -106 97 -247
170 -339 115 -143 293 -258 480 -307 l85 -23 1795 0 1795 0 85 23 c320 84 569
333 653 652 l22 85 0 1795 0 1795 -22 85 c-83 316 -329 563 -648 653 l-80 22
-1775 2 c-1425 1 -1789 -1 -1847 -12z m1519 -792 c24 -16 45 -32 46 -36 2 -4
14 -20 26 -35 12 -15 28 -46 34 -68 18 -62 17 -3045 -1 -3094 -26 -71 -109
-198 -130 -200 -5 0 -23 -11 -40 -24 -18 -14 -70 -37 -115 -52 -76 -24 -87
-25 -130 -14 -85 23 -175 72 -227 125 -45 46 -105 146 -105 174 0 14 -88 14
-131 0 -19 -6 -40 -19 -47 -28 -10 -13 -32 -16 -105 -16 -81 0 -96 3 -121 23
-16 12 -36 22 -45 22 -9 0 -24 8 -33 18 -9 9 -28 28 -43 42 -38 34 -73 92 -92
152 -15 44 -15 56 -3 96 8 26 16 73 18 106 4 66 -3 76 -57 76 -48 0 -156 62
-209 120 -12 14 -36 53 -53 87 -35 70 -34 92 9 180 25 52 40 72 81 105 17 15
21 29 21 79 0 58 -1 61 -30 72 -16 6 -30 15 -30 19 0 4 -8 16 -19 27 -10 10
-29 43 -43 72 -26 57 -26 56 9 136 18 43 66 88 126 119 l47 24 0 54 c0 46 -4
58 -25 74 -42 33 -95 131 -95 174 0 91 106 213 201 233 71 14 69 12 69 76 0
33 -6 72 -14 87 -30 58 -29 94 2 153 39 74 57 94 122 137 55 36 137 62 198 62
l32 0 0 65 c0 115 84 249 192 306 12 6 25 15 28 19 11 16 99 33 155 31 33 -1
91 -3 130 -4 l69 -2 9 50 c8 55 27 99 54 130 22 24 92 71 119 78 38 11 104 -3
146 -30z m758 -9 c52 -9 128 -28 168 -41 40 -12 79 -23 87 -23 8 0 29 -8 47
-18 18 -10 49 -24 68 -32 52 -20 104 -43 110 -49 3 -4 34 -22 70 -41 36 -18
70 -38 75 -42 25 -21 104 -78 107 -78 13 0 246 -225 273 -263 24 -34 47 -63
101 -131 22 -28 44 -58 47 -66 4 -8 21 -35 37 -60 43 -65 105 -196 135 -285 9
-27 21 -59 25 -70 66 -166 98 -487 70 -702 -15 -110 -51 -266 -70 -303 -4 -9
-11 -31 -15 -50 -11 -50 -85 -213 -141 -310 -27 -47 -129 -188 -148 -205 -6
-5 -24 -29 -40 -53 -16 -24 -63 -73 -104 -110 -41 -37 -95 -86 -120 -110 -45
-43 -217 -162 -262 -181 -14 -6 -32 -15 -40 -21 -8 -5 -46 -24 -85 -41 -38
-16 -79 -34 -90 -39 -28 -13 -166 -54 -250 -75 -83 -20 -198 -33 -312 -34
l-83 -1 0 1732 0 1731 123 -6 c68 -3 165 -13 217 -23z"/>
<path d="M1576 3617 c-42 -42 -36 -87 19 -146 24 -26 66 -58 94 -70 l49 -23
-5 -98 c-7 -112 10 -174 68 -253 52 -72 124 -82 160 -23 24 37 19 76 -14 120
-33 44 -46 103 -36 167 9 58 23 74 76 88 35 10 90 45 110 71 21 26 16 84 -12
114 -29 31 -67 34 -112 7 -52 -32 -100 -41 -155 -30 -28 6 -58 19 -68 28 -10
9 -30 27 -44 39 -14 13 -43 26 -65 29 -33 5 -44 1 -65 -20z"/>
<path d="M1198 2943 c-15 -9 -29 -29 -32 -45 -10 -52 11 -160 44 -220 30 -55
30 -58 13 -77 -10 -12 -23 -21 -30 -21 -7 0 -13 -4 -13 -8 0 -4 -16 -26 -37
-48 -51 -56 -90 -146 -98 -231 -10 -93 4 -136 50 -158 33 -15 37 -15 71 1 42
20 54 46 54 120 0 93 63 188 148 223 27 11 38 11 72 -3 22 -8 71 -17 109 -18
55 -2 73 1 89 16 29 26 36 68 18 104 -16 32 -47 47 -116 58 -59 9 -88 24 -131
71 -46 50 -69 94 -69 131 0 47 -19 87 -49 105 -36 21 -59 21 -93 0z"/>
<path d="M1564 2066 c-38 -38 -42 -62 -19 -145 13 -50 25 -79 61 -141 21 -38
17 -53 -26 -95 -65 -63 -114 -188 -113 -285 1 -77 17 -141 41 -165 33 -33 80
-33 115 -1 26 24 27 28 24 128 -2 118 10 154 70 213 46 45 67 50 122 30 24 -8
68 -15 99 -15 46 0 59 4 78 26 56 60 17 136 -76 148 -88 12 -147 46 -186 107
-22 35 -31 64 -50 159 -6 28 -59 70 -88 70 -10 0 -33 -15 -52 -34z"/>
<path d="M2892 3783 c3 -258 5 -298 18 -296 64 7 187 36 245 58 39 15 82 30
96 35 64 20 349 205 349 226 0 9 -24 28 -60 48 -19 11 -37 22 -40 25 -17 20
-176 96 -270 129 -108 38 -255 72 -313 72 l-27 0 2 -297z"/>
<path d="M3720 3534 c-98 -77 -215 -151 -311 -196 -99 -47 -127 -58 -142 -58
-8 0 -32 -9 -54 -19 -21 -11 -63 -24 -93 -29 -30 -6 -94 -18 -142 -28 l-88
-18 0 -218 0 -218 658 0 659 0 -8 53 c-18 121 -64 295 -82 313 -4 4 -7 14 -7
23 0 24 -98 219 -144 286 -58 85 -136 185 -144 185 -4 0 -50 -34 -102 -76z"/>
<path d="M2897 2453 c-4 -3 -7 -104 -7 -224 l0 -217 58 -11 c193 -37 293 -64
389 -107 17 -8 36 -14 42 -14 6 0 28 -10 49 -23 70 -43 77 -47 125 -72 26 -14
97 -64 156 -110 60 -47 111 -85 114 -85 13 0 167 212 167 229 0 5 4 11 8 13
11 4 95 177 123 253 37 102 79 282 79 338 l0 37 -648 0 c-357 0 -652 -3 -655
-7z"/>
<path d="M2890 1416 c0 -216 3 -295 12 -298 13 -5 205 34 265 52 112 35 267
102 290 126 8 8 19 14 24 14 14 0 119 70 119 79 0 5 -30 30 -66 57 -36 27 -71
54 -77 60 -7 5 -37 23 -67 39 -30 16 -66 37 -80 46 -52 35 -328 119 -390 119
l-30 0 0 -294z"/>
</g>
</svg>
